# xmcd
#
# Track frame offsets: 
#        150
#        25910
#        45723
#        65046
#        86353
#        99725
#        129443
#        146465
#        169245
#        185690
#        210845
#        234396
#        256394
#        279195
#        298529
#
# Disc length: 4217 seconds
#
# Revision: 3
# Processed by: cddbd v1.5.2PL0 Copyright (c) Steve Scherf et al.
# Submitted via: ExactAudioCopy v0.95b4
#
DISCID=d310770f
DTITLE=Blues Underground - ON MY WAY BACK HOME
DYEAR=1995
DGENRE=Blues
TTITLE0=The Thrill Is Gone
TTITLE1=Messin' With The Kid
TTITLE2=St. James Infirmary
TTITLE3=On My Way Back Home
TTITLE4=Love and Understanding
TTITLE5=The Sky Is Crying
TTITLE6=You Upset Me
TTITLE7=It's Been So Long
TTITLE8=Born Under A Bad Sign
TTITLE9=Why Did She Go?
TTITLE10=Bring Your Fine Self Home
TTITLE11=You Have All My Love
TTITLE12=The Same Thing
TTITLE13=Big Legged Woman
TTITLE14=I'll Play The Blues For You
EXTD=
EXTT0=
EXTT1=
EXTT2=
EXTT3=
EXTT4=
EXTT5=
EXTT6=
EXTT7=
EXTT8=
EXTT9=
EXTT10=
EXTT11=
EXTT12=
EXTT13=
EXTT14=
PLAYORDER=
